<?xml version="1.0" standalone="no"?>
<svg xmlns:xlink="http://www.w3.org/1999/xlink" id="wave" style="transform:rotate(0deg); transition: 0.3s" viewBox="0 0 1440 200" version="1.1" xmlns="http://www.w3.org/2000/svg"><defs><linearGradient id="sw-gradient-0" x1="0" x2="0" y1="1" y2="0"><stop stop-color="rgba(255, 255, 255, 1)" offset="0%"/><stop stop-color="rgba(255, 255, 255, 1)" offset="100%"/></linearGradient></defs><path style="transform:translate(0, 0px); opacity:1" fill="url(#sw-gradient-0)" d="M0,100L34.3,96.7C68.6,93,137,87,206,93.3C274.3,100,343,120,411,126.7C480,133,549,127,617,130C685.7,133,754,147,823,143.3C891.4,140,960,120,1029,120C1097.1,120,1166,140,1234,130C1302.9,120,1371,80,1440,56.7C1508.6,33,1577,27,1646,43.3C1714.3,60,1783,100,1851,96.7C1920,93,1989,47,2057,36.7C2125.7,27,2194,53,2263,73.3C2331.4,93,2400,107,2469,103.3C2537.1,100,2606,80,2674,63.3C2742.9,47,2811,33,2880,26.7C2948.6,20,3017,20,3086,43.3C3154.3,67,3223,113,3291,130C3360,147,3429,133,3497,113.3C3565.7,93,3634,67,3703,50C3771.4,33,3840,27,3909,30C3977.1,33,4046,47,4114,63.3C4182.9,80,4251,100,4320,93.3C4388.6,87,4457,53,4526,36.7C4594.3,20,4663,20,4731,26.7C4800,33,4869,47,4903,53.3L4937.1,60L4937.1,200L4902.9,200C4868.6,200,4800,200,4731,200C4662.9,200,4594,200,4526,200C4457.1,200,4389,200,4320,200C4251.4,200,4183,200,4114,200C4045.7,200,3977,200,3909,200C3840,200,3771,200,3703,200C3634.3,200,3566,200,3497,200C3428.6,200,3360,200,3291,200C3222.9,200,3154,200,3086,200C3017.1,200,2949,200,2880,200C2811.4,200,2743,200,2674,200C2605.7,200,2537,200,2469,200C2400,200,2331,200,2263,200C2194.3,200,2126,200,2057,200C1988.6,200,1920,200,1851,200C1782.9,200,1714,200,1646,200C1577.1,200,1509,200,1440,200C1371.4,200,1303,200,1234,200C1165.7,200,1097,200,1029,200C960,200,891,200,823,200C754.3,200,686,200,617,200C548.6,200,480,200,411,200C342.9,200,274,200,206,200C137.1,200,69,200,34,200L0,200Z"/></svg>