<?xml version="1.0" standalone="no"?>
<svg xmlns:xlink="http://www.w3.org/1999/xlink" id="wave" style="transform:rotate(0deg); transition: 0.3s" viewBox="0 0 1440 400" version="1.1" xmlns="http://www.w3.org/2000/svg"><defs><linearGradient id="sw-gradient-0" x1="0" x2="0" y1="1" y2="0"><stop stop-color="rgba(243, 106, 62, 1)" offset="0%"/><stop stop-color="rgba(255, 179, 11, 1)" offset="100%"/></linearGradient></defs><path style="transform:translate(0, 0px); opacity:1" fill="url(#sw-gradient-0)" d="M0,200L60,206.7C120,213,240,227,360,206.7C480,187,600,133,720,120C840,107,960,133,1080,166.7C1200,200,1320,240,1440,246.7C1560,253,1680,227,1800,180C1920,133,2040,67,2160,33.3C2280,0,2400,0,2520,6.7C2640,13,2760,27,2880,86.7C3000,147,3120,253,3240,260C3360,267,3480,173,3600,160C3720,147,3840,213,3960,206.7C4080,200,4200,120,4320,80C4440,40,4560,40,4680,46.7C4800,53,4920,67,5040,80C5160,93,5280,107,5400,126.7C5520,147,5640,173,5760,193.3C5880,213,6000,227,6120,233.3C6240,240,6360,240,6480,206.7C6600,173,6720,107,6840,93.3C6960,80,7080,120,7200,160C7320,200,7440,240,7560,213.3C7680,187,7800,93,7920,66.7C8040,40,8160,80,8280,93.3C8400,107,8520,93,8580,86.7L8640,80L8640,400L8580,400C8520,400,8400,400,8280,400C8160,400,8040,400,7920,400C7800,400,7680,400,7560,400C7440,400,7320,400,7200,400C7080,400,6960,400,6840,400C6720,400,6600,400,6480,400C6360,400,6240,400,6120,400C6000,400,5880,400,5760,400C5640,400,5520,400,5400,400C5280,400,5160,400,5040,400C4920,400,4800,400,4680,400C4560,400,4440,400,4320,400C4200,400,4080,400,3960,400C3840,400,3720,400,3600,400C3480,400,3360,400,3240,400C3120,400,3000,400,2880,400C2760,400,2640,400,2520,400C2400,400,2280,400,2160,400C2040,400,1920,400,1800,400C1680,400,1560,400,1440,400C1320,400,1200,400,1080,400C960,400,840,400,720,400C600,400,480,400,360,400C240,400,120,400,60,400L0,400Z"/></svg>